<?xml version="1.0" standalone="yes"?>
<svg xmlns="http://www.w3.org/2000/svg" width="192" height="192">
<path style="fill:#e7e8e2; stroke:none;" d="M0 0L0 192L192 192L192 0L0 0z"/>
<path style="fill:#c9cac5; stroke:none;" d="M86 33C87.2484 33.6848 87.5484 33.7488 89 34C87.7517 33.3152 87.4515 33.2512 86 33z"/>
<path style="fill:#a6a7a1; stroke:none;" d="M89 33C92.1633 34.3274 95.5856 33.9996 99 34C95.8367 32.6726 92.4144 33.0004 89 33z"/>
<path style="fill:#c4c5c0; stroke:none;" d="M83 34C84.2484 34.6848 84.5484 34.7488 86 35C84.7517 34.3152 84.4515 34.2512 83 34z"/>
<path style="fill:#7a7c79; stroke:none;" d="M86 34C87.2484 34.6848 87.5484 34.7488 89 35C87.7517 34.3152 87.4515 34.2512 86 34z"/>
<path style="fill:#484a45; stroke:none;" d="M89 34C91.8897 35.2129 94.8741 34.9983 98 35C95.1103 33.7871 92.1259 34.0017 89 34z"/>
<path style="fill:#72746f; stroke:none;" d="M98.6667 34.3333C98.2222 34.7778 99.2778 34.7222 99.3333 34.6667C99.7778 34.2222 98.7222 34.2778 98.6667 34.3333z"/>
<path style="fill:#9a9b96; stroke:none;" d="M100.667 34.3333C100.222 34.7778 101.278 34.7222 101.333 34.6667C101.778 34.2222 100.722 34.2778 100.667 34.3333z"/>
<path style="fill:#cfd0cb; stroke:none;" d="M82 35L82 40C82.8299 37.9695 82.8299 37.0305 82 35z"/>
<path style="fill:#8a8b86; stroke:none;" d="M83 35L83 39C83.7102 37.2405 83.7102 36.7595 83 35z"/>
<path style="fill:#2f312e; stroke:none;" d="M84 35C87.756 40.3161 96.4398 37.4388 102 37C96.6084 34.1336 89.9442 35 84 35z"/>
<path style="fill:#4e4f4a; stroke:none;" d="M98 35C99.506 35.683 100.315 35.8259 102 36C100.494 35.317 99.6852 35.1741 98 35z"/>
<path style="fill:#73746f; stroke:none;" d="M102.667 35.3333C102.222 35.7778 103.278 35.7222 103.333 35.6667C103.778 35.2222 102.722 35.2778 102.667 35.3333z"/>
<path style="fill:#b9bab5; stroke:none;" d="M104 35L104 40C104.83 37.9695 104.83 37.0305 104 35z"/>
<path style="fill:#61615f; stroke:none;" d="M102 36L102 40C103.267 38.4569 103.489 37.9522 104 36L102 36z"/>
<path style="fill:#454742; stroke:none;" d="M84 37C81.3081 48.3068 83 61.4116 83 73L83 141C86.0042 133.841 84 122.744 84 115L84 65C84 55.7253 82.7852 45.8208 86 37L84 37z"/>
<path style="fill:#4c4c4a; stroke:none;" d="M97 37C98.7691 37.7789 100.036 37.9124 102 38C100.231 37.2211 98.9641 37.0876 97 37z"/>
<path style="fill:#f8faf5; stroke:none;" d="M105 37L105 141C107.802 134.322 106 124.216 106 117L106 64C106 55.9926 108.105 44.3995 105 37z"/>
<path style="fill:#858988; stroke:none;" d="M85 38L85 40L102 40L102 38L85 38z"/>
<path style="fill:#161815; stroke:none;" d="M103 39L103 140C106.004 132.841 104 121.744 104 114L104 62C104 55.0491 105.701 45.4361 103 39z"/>
<path style="fill:#b7b9b4; stroke:none;" d="M82 40L82 141C85.0042 133.841 83 122.744 83 115L83 63C83 56.0491 84.7007 46.4361 82 40z"/>
<path style="fill:#292b28; stroke:none;" d="M84 40L84 141C86.7007 134.564 85 124.951 85 118L85 66C85 58.2563 87.0042 47.1593 84 40z"/>
<path style="fill:#2f3332; stroke:none;" d="M85 40L85 107C85 118.282 86.6212 130.99 84 142C90.8556 143.632 97.2556 142.745 104 141C102.999 139.076 102.923 138.902 101 138C103.779 128.597 102 116.782 102 107L102 45L90 46C91.9104 54.0243 91 62.7907 91 71L91 114C91 121.427 89.8861 129.848 92 137C86.8565 130.213 88 118.141 88 110L88 48C84.9958 55.1593 87 66.2563 87 74L87 131C84.1379 121.317 86 109.076 86 99L86 62C86 54.7193 85.3049 47.1199 87 40L85 40z"/>
<path style="fill:#4c5051; stroke:none;" d="M87 40C90.6975 41.5515 95.0168 41 99 41C95.3025 39.4485 90.9832 40 87 40z"/>
<path style="fill:#2e3231; stroke:none;" d="M86 41L86 131C89.0042 123.841 87 112.744 87 105L87 48C89.0301 54.868 88 62.8692 88 70L88 112C88 118.372 88.038 124.003 89.5455 130.169C90.2204 132.93 89.8091 135.086 92 137C90.0896 128.976 91 120.209 91 112L91 69C91 61.5732 92.1139 53.1516 90 46L102 45L102 105C102 115.669 103.48 127.585 101 138C103.407 135.897 102.994 133.106 103 130L103 113L103 40C97.2817 40.4513 91.7588 41 86 41z"/>
<path style="fill:#8f918c; stroke:none;" d="M104 40L104 141C107.004 133.841 105 122.744 105 115L105 63C105 56.049 106.701 46.4361 104 40z"/>
<path style="fill:#777775; stroke:none;" d="M83 141L84 142L83 141z"/>
<path style="fill:#4e4f4a; stroke:none;" d="M102.667 141.333C102.222 141.778 103.278 141.722 103.333 141.667C103.778 141.222 102.722 141.278 102.667 141.333z"/>
<path style="fill:#cac9c5; stroke:none;" d="M104.333 141.667C104.278 141.722 104.222 142.778 104.667 142.333C104.722 142.278 104.778 141.222 104.333 141.667z"/>
<path style="fill:#646462; stroke:none;" d="M84.6667 142.333C84.2222 142.778 85.2778 142.722 85.3333 142.667C85.7778 142.222 84.7222 142.278 84.6667 142.333z"/>
<path style="fill:#585a57; stroke:none;" d="M97 142C98.7691 142.779 100.036 142.912 102 143C100.231 142.221 98.9641 142.088 97 142z"/>
<path style="fill:#8f9490; stroke:none;" d="M84 143L84 147C88.8876 144.282 97.4176 143.528 102 147C102.924 145.352 103.449 143.825 104 142C96.8738 143.47 91.1835 143.148 84 143z"/>
<path style="fill:#828685; stroke:none;" d="M90 143C92.6127 144.098 95.1645 143.993 98 144C95.3873 142.902 92.8355 143.007 90 143z"/>
<path style="fill:#cbccc7; stroke:none;" d="M103 143L103 147C103.71 145.241 103.71 144.759 103 143z"/>
<path style="fill:#555756; stroke:none;" d="M85 147L90 146C87.6996 145.084 86.6232 145.121 85 147z"/>
<path style="fill:#6c716d; stroke:none;" d="M90 145C92.6127 146.098 95.1645 145.993 98 146C95.3873 144.902 92.8355 145.007 90 145z"/>
<path style="fill:#535351; stroke:none;" d="M98 145C99.5061 145.683 100.315 145.826 102 146C100.494 145.317 99.6852 145.174 98 145z"/>
<path style="fill:#2f312e; stroke:none;" d="M86 146L93 167C97.936 161.31 97.5258 152.685 102 147C97.492 145.383 90.9981 146.632 86 146z"/>
<path style="fill:#40423f; stroke:none;" d="M89 146C91.8897 147.213 94.8741 146.998 98 147C95.1103 145.787 92.1259 146.002 89 146z"/>
<path style="fill:#c8c8c6; stroke:none;" d="M84.3333 147.667C84.2778 147.722 84.2222 148.778 84.6667 148.333C84.7222 148.278 84.7778 147.222 84.3333 147.667z"/>
<path style="fill:#8f8f8d; stroke:none;" d="M85 147L85 150C85.6961 148.446 85.6961 148.554 85 147z"/>
<path style="fill:#4b4d4a; stroke:none;" d="M86 147L86 150C86.6961 148.446 86.6961 148.554 86 147z"/>
<path style="fill:#4a4a48; stroke:none;" d="M100 147L100 150C101.015 148.861 101.309 148.388 102 147L100 147z"/>
<path style="fill:#c4c5c0; stroke:none;" d="M102.333 147.667C102.278 147.722 102.222 148.778 102.667 148.333C102.722 148.278 102.778 147.222 102.333 147.667z"/>
<path style="fill:#828280; stroke:none;" d="M101.333 148.667C101.278 148.722 101.222 149.778 101.667 149.333C101.722 149.278 101.778 148.222 101.333 148.667z"/>
<path style="fill:#9a9a98; stroke:none;" d="M86.3333 150.667C86.2777 150.722 86.2222 151.778 86.6667 151.333C86.7222 151.278 86.7778 150.222 86.3333 150.667z"/>
<path style="fill:#494947; stroke:none;" d="M87.3333 150.667C87.2778 150.722 87.2222 151.778 87.6667 151.333C87.7222 151.278 87.7778 150.222 87.3333 150.667z"/>
<path style="fill:#7a7b76; stroke:none;" d="M100.333 150.667C100.278 150.722 100.222 151.778 100.667 151.333C100.722 151.278 100.778 150.222 100.333 150.667z"/>
<path style="fill:#bcbdb8; stroke:none;" d="M101.333 150.667C101.278 150.722 101.222 151.778 101.667 151.333C101.722 151.278 101.778 150.222 101.333 150.667z"/>
<path style="fill:#7b7b79; stroke:none;" d="M87 152L87 155C87.6961 153.446 87.6961 153.554 87 152z"/>
<path style="fill:#696b66; stroke:none;" d="M99.3333 152.667C99.2778 152.722 99.2222 153.778 99.6667 153.333C99.7222 153.278 99.7778 152.222 99.3333 152.667z"/>
<path style="fill:#b6b7b2; stroke:none;" d="M100.333 152.667C100.278 152.722 100.222 153.778 100.667 153.333C100.722 153.278 100.778 152.222 100.333 152.667z"/>
<path style="fill:#565654; stroke:none;" d="M88 153L88 156C88.6961 154.446 88.6961 154.554 88 153z"/>
<path style="fill:#9a9b95; stroke:none;" d="M99.3333 154.667C99.2778 154.722 99.2222 155.778 99.6667 155.333C99.7222 155.278 99.7778 154.222 99.3333 154.667z"/>
<path style="fill:#ababa9; stroke:none;" d="M87 155C87.6836 156.58 87.8048 156.777 89 158C88.3164 156.42 88.1952 156.223 87 155z"/>
<path style="fill:#5c5c5a; stroke:none;" d="M89 156L89 159C89.6961 157.446 89.6961 157.554 89 156z"/>
<path style="fill:#a5a6a0; stroke:none;" d="M98.3333 156.667C98.2777 156.722 98.2222 157.778 98.6667 157.333C98.7222 157.278 98.7778 156.222 98.3333 156.667z"/>
<path style="fill:#858881; stroke:none;" d="M97.3333 158.667C97.2778 158.722 97.2222 159.778 97.6667 159.333C97.7222 159.278 97.7778 158.222 97.3333 158.667z"/>
<path style="fill:#abaca7; stroke:none;" d="M89.3333 159.667C89.2778 159.722 89.2222 160.778 89.6667 160.333C89.7222 160.278 89.7778 159.222 89.3333 159.667z"/>
<path style="fill:#646661; stroke:none;" d="M90.3333 159.667C90.2778 159.722 90.2222 160.778 90.6667 160.333C90.7222 160.278 90.7778 159.222 90.3333 159.667z"/>
<path style="fill:#5d5e58; stroke:none;" d="M96 159L96 162C96.6961 160.446 96.6961 160.554 96 159z"/>
<path style="fill:#bdbeb8; stroke:none;" d="M97 160L96 164C97.303 162.332 97.553 162.008 97 160z"/>
<path style="fill:#8a8b86; stroke:none;" d="M90 161L91 166C91.6514 163.766 91.3182 162.926 90 161z"/>
<path style="fill:#7a7c77; stroke:none;" d="M95.3333 164.667C95.2778 164.722 95.2222 165.778 95.6667 165.333C95.7222 165.278 95.7778 164.222 95.3333 164.667z"/>
<path style="fill:#555752; stroke:none;" d="M92 165L93 166L92 165z"/>
<path style="fill:#50524d; stroke:none;" d="M94.3333 165.667C94.2778 165.722 94.2222 166.778 94.6667 166.333C94.7222 166.278 94.7778 165.222 94.3333 165.667z"/>
<path style="fill:#979893; stroke:none;" d="M92.3333 166.667C92.2778 166.722 92.2222 167.778 92.6667 167.333C92.7222 167.278 92.7778 166.222 92.3333 166.667z"/>
<path style="fill:#bbbdb8; stroke:none;" d="M95.3333 166.667C95.2778 166.722 95.2222 167.778 95.6667 167.333C95.7222 167.278 95.7778 166.222 95.3333 166.667z"/>
<path style="fill:#6e706b; stroke:none;" d="M93.6667 167.333C93.2222 167.778 94.2778 167.722 94.3333 167.667C94.7778 167.222 93.7222 167.278 93.6667 167.333z"/>
<path style="fill:#9e9f99; stroke:none;" d="M93.6667 168.333C93.2222 168.778 94.2778 168.722 94.3333 168.667C94.7778 168.222 93.7222 168.278 93.6667 168.333z"/>
<path style="fill:#bdbeb8; stroke:none;" d="M93.6667 169.333C93.2222 169.778 94.2778 169.722 94.3333 169.667C94.7778 169.222 93.7222 169.278 93.6667 169.333z"/>
</svg>
